<?xml version="1.0" encoding="UTF-8"?>
<svg version="1.1" xmlns="http://www.w3.org/2000/svg" width="618" height="200">
<path d="M0 0 C1.68114861 -0.00842113 3.36228778 -0.01894977 5.04341125 -0.03141785 C9.59315188 -0.05840659 14.1423428 -0.05378091 18.69212794 -0.04171729 C22.49675478 -0.0345713 26.30128091 -0.04309525 30.10589987 -0.05162269 C39.08436455 -0.07155616 48.06256285 -0.06602704 57.04101562 -0.04394531 C66.29004036 -0.02158402 75.53836701 -0.03918146 84.7873258 -0.0769946 C92.74175601 -0.10826765 100.69597057 -0.11613267 108.65045458 -0.10504085 C113.3953894 -0.09856581 118.13992157 -0.10049834 122.88480949 -0.12436485 C127.3478495 -0.14567193 131.80990762 -0.13756821 136.27288628 -0.10727119 C137.90585141 -0.10096267 139.53889339 -0.10475895 141.17180252 -0.11968231 C149.29298989 -0.18785812 156.04809951 -0.21933977 162.77037907 4.97424603 C168.81951886 11.07183952 170.56503228 16.89118913 170.58599854 25.31610107 C170.58896966 25.98357683 170.59194078 26.65105259 170.59500194 27.33875489 C170.60366946 29.57407524 170.60519553 31.80934192 170.60668945 34.04467773 C170.61131903 35.64803176 170.61634388 37.25138468 170.62173462 38.85473633 C170.63484776 43.2102692 170.64130154 47.56578665 170.64574528 51.92133617 C170.64867795 54.64379012 170.65278314 57.36623988 170.65724945 60.08869171 C170.67092195 68.6103125 170.68058964 77.13192368 170.68445134 85.65355468 C170.68893066 95.48354324 170.70647373 105.31339266 170.73545194 115.14333892 C170.75708464 122.74603234 170.76715648 130.34868666 170.76849246 137.95141053 C170.76953941 142.49003847 170.77542376 147.02853556 170.79331207 151.56713104 C170.80982009 155.83859582 170.81193505 160.10983178 170.80317307 164.38131714 C170.80240413 165.94537215 170.80672642 167.5094396 170.81663132 169.07346344 C170.8729216 178.51908586 170.68283897 185.85316519 165.25805664 193.9128418 C157.22129914 201.77100469 148.62682359 201.23831679 138.05883789 201.18041992 C136.39577625 201.18584582 134.73271942 201.1929711 133.06967163 201.20166016 C128.56963103 201.21984088 124.0699587 201.21284778 119.56991196 201.20014381 C114.85177395 201.18998886 110.13366664 201.19941641 105.41552734 201.20568848 C97.49351361 201.21295762 89.57164924 201.20339643 81.6496582 201.18432617 C72.50185711 201.16255883 63.35441267 201.16961072 54.20662022 201.19163179 C46.34055061 201.20980669 38.47458812 201.21233391 30.6085043 201.20187712 C25.91567072 201.19565367 21.22300458 201.19477488 16.53018188 201.20802307 C12.11739095 201.21961141 7.70505809 201.21150163 3.29231644 201.18844604 C1.67667017 201.18317484 0.06098508 201.18464545 -1.55464554 201.1934967 C-16.73547184 201.26897233 -16.73547184 201.26897233 -23.55444336 196.6628418 C-25.61303711 194.5925293 -25.61303711 194.5925293 -26.99194336 192.5378418 C-27.70157227 191.51303711 -27.70157227 191.51303711 -28.42553711 190.4675293 C-30.72778312 186.78712219 -30.69116619 184.31908013 -30.71507263 179.95310974 C-30.72016045 179.25537998 -30.72524827 178.55765021 -30.73049027 177.83877712 C-30.74624893 175.48903704 -30.75474889 173.13932778 -30.76318359 170.78955078 C-30.77271956 169.1092967 -30.7826106 167.42904461 -30.79283142 165.74879456 C-30.82425495 160.21886536 -30.84449174 154.68892097 -30.86303711 149.15893555 C-30.86633443 148.21813432 -30.86963175 147.27733309 -30.87302899 146.30802274 C-30.90381847 137.43430992 -30.93052635 128.56059375 -30.94744778 119.68684292 C-30.96934203 108.33806224 -31.01127783 96.98975547 -31.08088535 85.64116424 C-31.12816535 77.66143412 -31.15238693 69.68183165 -31.15964466 61.70196587 C-31.16459615 56.93674198 -31.17962818 52.1720518 -31.21938896 47.40698051 C-31.25633802 42.91950686 -31.26463811 38.43286986 -31.25138283 33.94527245 C-31.25143665 32.30259601 -31.26167955 30.65988175 -31.28313446 29.01734543 C-31.47373001 13.59495928 -31.47373001 13.59495928 -26.3324604 7.4063015 C-25.45234197 6.54328895 -25.45234197 6.54328895 -24.55444336 5.6628418 C-24.0281024 5.12755167 -23.50176144 4.59226154 -22.95947075 4.0407505 C-16.50159372 -1.1354721 -7.83031316 -0.04521349 0 0 Z " fill="#6EC1CD" transform="translate(30.554443359375,-0.662841796875)"/>
<path d="M0 0 C5.68075595 4.72324972 10.91070104 9.78035049 16.11645508 15.01879883 C17.0018396 15.90564362 17.88722412 16.7924884 18.79943848 17.70620728 C20.71135544 19.621915 22.6223481 21.53849313 24.53180885 23.45664406 C27.55038526 26.48882044 30.57284202 29.51710919 33.59587097 32.54484558 C40.00439393 38.96442706 46.40865231 45.38825522 52.8125 51.8125 C59.74438948 58.76642522 66.67702041 65.71960197 73.61451644 72.6679346 C76.62100354 75.67940811 79.62503513 78.69330361 82.62721884 81.70906699 C84.92635843 84.01739195 87.22869893 86.32252084 89.53051758 88.62817383 C90.77961159 89.88501732 90.77961159 89.88501732 92.05393982 91.16725159 C93.19142166 92.30483917 93.19142166 92.30483917 94.35188293 93.46540833 C95.01201291 94.12775891 95.67214289 94.7901095 96.3522768 95.47253132 C97.93837308 97.08589376 97.93837308 97.08589376 100 98 C100.07466101 102.69560343 100.12884101 107.39085443 100.16479492 112.08691406 C100.17979745 113.68137641 100.20020621 115.27579808 100.22631836 116.87011719 C100.26308134 119.17393077 100.27981155 121.4771946 100.29296875 123.78125 C100.30845261 124.48366821 100.32393646 125.18608643 100.33988953 125.90979004 C100.34209879 132.54072373 98.50683351 137.76127593 94.8125 143.25 C88.71973941 149.20736591 82.61567323 150.62848685 74.27734375 150.671875 C73.37303116 150.6851886 72.46871857 150.6985022 71.53700256 150.71221924 C69.63697379 150.73235368 67.73680527 150.74185697 65.83666992 150.74121094 C62.94017957 150.74999188 60.0497171 150.82280444 57.15429688 150.8984375 C43.73737233 151.06057907 43.73737233 151.06057907 39.16845703 148.27148438 C36.51790001 145.32146376 35.24832068 142.74496203 34 139 C31.99983534 137.79117904 31.99983534 137.79117904 30 137 C30 136.34 30 135.68 30 135 C29.13375 134.62875 29.13375 134.62875 28.25 134.25 C25.70649745 132.83694303 24.04701082 131.04701082 22 129 C21.34 129 20.68 129 20 129 C19.7525 128.05125 19.505 127.1025 19.25 126.125 C17.80880619 122.52201547 17.2896662 122.54203103 14 121 C13.690625 120.175 13.38125 119.35 13.0625 118.5 C12.22427519 115.78640979 12.22427519 115.78640979 9.5625 114.75 C8.2940625 114.37875 8.2940625 114.37875 7 114 C4 113 4 113 2 110 C1.01 109.67 0.02 109.34 -1 109 C-1.020625 108.29875 -1.04125 107.5975 -1.0625 106.875 C-2.27119274 103.16834227 -4.16715343 101.86494315 -7.15234375 99.48046875 C-10.64664626 96.68059422 -13.52040273 93.7193959 -16 90 C-11.83550715 91.59663418 -7.99802636 93.55397541 -4.0859375 95.68359375 C4.68622037 99.42564084 12.95796856 100.48013344 22.4375 100.375 C24.00081055 100.39240234 24.00081055 100.39240234 25.59570312 100.41015625 C33.12144527 100.38216217 39.78985155 99.09086933 47 97 C48.18078125 96.68675781 49.3615625 96.37351562 50.578125 96.05078125 C51.45984375 95.80714844 52.3415625 95.56351562 53.25 95.3125 C54.16265625 95.06113281 55.0753125 94.80976563 56.015625 94.55078125 C56.67046875 94.36902344 57.3253125 94.18726563 58 94 C58 94.66 58 95.32 58 96 C61.48809191 95.22969878 61.48809191 95.22969878 65 94 C65.495 92.515 65.495 92.515 66 91 C68.5625 89.8125 68.5625 89.8125 71 89 C69.60240095 85.45481116 69.60240095 85.45481116 68 82 C62.06 82.495 62.06 82.495 56 83 C56 83.99 56 84.98 56 86 C43.19331171 86.86401945 32.19727188 84.62026916 22.14453125 76.24609375 C17.76960065 71.66397153 14.39041317 66.33008217 11 61 C8.16553468 62.33096633 5.33242622 63.66470562 2.5 65 C1.64519043 65.40138184 0.79038086 65.80276367 -0.09033203 66.21630859 C-4.31624942 68.21146759 -8.51096946 70.24068435 -12.6484375 72.4140625 C-13.36322266 72.78660156 -14.07800781 73.15914063 -14.81445312 73.54296875 C-16.16059498 74.24985272 -17.50081265 74.96816746 -18.83398438 75.69921875 C-21.77851978 77.23847853 -23.59443013 78.03980394 -26.9453125 77.7109375 C-27.62335938 77.47632812 -28.30140625 77.24171875 -29 77 C-29.33 75.68 -29.66 74.36 -30 73 C-26.01681161 70.93629107 -22.03323552 68.87333294 -18.04931641 66.81103516 C-16.69732456 66.11104033 -15.3454343 65.41084927 -13.99365234 64.71044922 C-7.0176004 61.09610154 -0.04189979 57.48502183 7 54 C6.86722656 53.33613281 6.73445313 52.67226562 6.59765625 51.98828125 C5.29882812 45.49414062 5.29882812 45.49414062 4 39 C3.32646484 39.29656494 2.65292969 39.59312988 1.95898438 39.89868164 C1.01345703 40.31496826 0.06792969 40.73125488 -0.90625 41.16015625 C-1.95337158 41.62131836 -3.00049316 42.08248047 -4.0793457 42.55761719 C-6.36626252 43.56372348 -8.65386506 44.56827247 -10.94213867 45.57128906 C-16.00354554 47.79114771 -21.06068217 50.01495166 -26.08203125 52.32421875 C-26.8090625 52.65478271 -27.53609375 52.98534668 -28.28515625 53.32592773 C-29.60327606 53.92673258 -30.91737479 54.53646685 -32.2265625 55.15649414 C-34.67126571 56.26196345 -36.58798717 57.01403792 -39.29296875 56.921875 C-41.54331447 55.70658532 -41.95283358 54.27692158 -43 52 C-33.98773502 47.2917862 -24.68335637 43.26390476 -15.375 39.1875 C-13.78245053 38.48786133 -12.1900018 37.7879933 -10.59765625 37.08789062 C-6.73292662 35.38928189 -2.86684905 33.69377804 1 32 C1.04771232 26.63501469 1.0465095 21.34364846 0.5 16 C0.00766002 10.64666953 -0.08531001 5.37117166 0 0 Z " fill="#1C6E74" transform="translate(101,50)"/>
<path d="M0 0 C6.93 0 13.86 0 21 0 C21.33 21.78 21.66 43.56 22 66 C30.8337088 53.0082956 30.8337088 53.0082956 38.10449219 40.01513672 C40.23137106 36.04151775 42.24926465 32.61100914 46 30 C53.81834069 27.89383475 62.07904987 28.87584769 70 30 C65.88588748 36.30229025 61.55960923 42.40384771 57.0625 48.4375 C52.27535365 54.89403927 47.55395609 61.37640272 43 68 C46.95532192 74.11448134 51.16502439 79.92015292 55.6875 85.625 C60.32089408 91.53174054 64.91073462 97.4640818 69.375 103.5 C69.84510498 104.1285791 70.31520996 104.7571582 70.79956055 105.40478516 C74 109.76233927 74 109.76233927 74 112 C54.11434187 114.68659399 54.11434187 114.68659399 47.71630859 110.50878906 C43.78040485 106.60585937 40.98157914 101.99330845 38.26806641 97.18945312 C36.46642701 94.0787288 34.35826408 91.30185882 32.1875 88.4375 C31.12271678 86.95997607 30.0591676 85.48155468 29 84 C24.45158774 87.95462476 21.92549848 91.79566264 21.3125 97.828125 C20.98354424 102.56078014 21.03328702 107.23995598 21 112 C14.07 112 7.14 112 0 112 C0 75.04 0 38.08 0 0 Z " fill="#292123" transform="translate(544,42)"/>
<path d="M0 0 C0 28.38 0 56.76 0 86 C-4.62 86 -9.24 86 -14 86 C-16.8792292 82.65637899 -18.40448465 80.82923685 -20 77 C-20.49814209 77.30292969 -20.99628418 77.60585937 -21.50952148 77.91796875 C-23.80710651 79.29933563 -26.12162943 80.64953174 -28.4375 82 C-29.22060547 82.47695312 -30.00371094 82.95390625 -30.81054688 83.4453125 C-36.33400036 86.62754907 -40.63136429 87.91714679 -47 87 C-53.00536529 85.34940252 -59.04339315 82.20586895 -62.33984375 76.8046875 C-71.14993927 60.10381078 -71.07470222 38.1702519 -67 20 C-64.74977478 13.42186558 -61.96069039 7.71894266 -56.00390625 3.8671875 C-50.46115196 1.46856868 -45.06614896 0.685855 -39.08203125 0.5859375 C-37.97428596 0.55688828 -37.97428596 0.55688828 -36.84416199 0.5272522 C-34.50038882 0.46801942 -32.15655725 0.4214601 -29.8125 0.375 C-28.25974573 0.33673645 -26.70701079 0.29768014 -25.15429688 0.2578125 C-16.76556118 0.05355236 -8.39495063 0 0 0 Z M-44 23 C-48.94574105 32.36158128 -49.42677982 44.60042464 -47.43359375 54.9375 C-46.22631563 58.78056332 -45.06693459 61.31150464 -42 64 C-39.32917961 65.52174919 -39.32917961 65.52174919 -33 65 C-28.71 62.69 -24.42 60.38 -20 58 C-20 45.46 -20 32.92 -20 20 C-37.25643105 18.37076344 -37.25643105 18.37076344 -44 23 Z " fill="#292123" transform="translate(436,68)"/>
<path d="M0 0 C1.14072968 0.00015106 2.28145935 0.00030212 3.45675659 0.00045776 C4.6725943 0.01078033 5.88843201 0.02110291 7.14111328 0.03173828 C8.39779816 0.03456818 9.65448303 0.03739807 10.94924927 0.04031372 C14.27343442 0.04958956 17.59734002 0.06752697 20.92144775 0.08972168 C24.32016599 0.11026266 27.71891322 0.119333 31.11767578 0.12939453 C37.7740124 0.15141702 44.43018086 0.1859277 51.08642578 0.22705078 C51.08642578 6.49705078 51.08642578 12.76705078 51.08642578 19.22705078 C46.73390625 19.30052734 46.73390625 19.30052734 42.29345703 19.37548828 C39.47691785 19.42952931 36.66046233 19.48682455 33.84399414 19.54443359 C31.88963069 19.58266867 29.93519819 19.61753105 27.98071289 19.64892578 C25.16804356 19.69469513 22.35584739 19.75267001 19.54345703 19.81298828 C18.67243851 19.82453949 17.80141998 19.8360907 16.90400696 19.84799194 C10.73896226 19.95866389 10.73896226 19.95866389 5.08642578 22.22705078 C1.78406107 28.17026162 1.78406107 28.17026162 2.08642578 44.22705078 C14.95642578 44.22705078 27.82642578 44.22705078 41.08642578 44.22705078 C40.08642578 61.22705078 40.08642578 61.22705078 39.08642578 63.22705078 C26.87642578 63.22705078 14.66642578 63.22705078 2.08642578 63.22705078 C2.08642578 77.41705078 2.08642578 91.60705078 2.08642578 106.22705078 C-5.17357422 106.22705078 -12.43357422 106.22705078 -19.91357422 106.22705078 C-19.95882005 94.76106072 -19.99548759 83.2951303 -20.01719856 71.82907104 C-20.02762051 66.50450311 -20.04175073 61.17999961 -20.06445312 55.85546875 C-20.08623811 50.71372853 -20.09815479 45.57205016 -20.1033287 40.43026733 C-20.10701431 38.47194445 -20.11421133 36.51362482 -20.12503433 34.55532837 C-20.13962439 31.80520401 -20.14154902 29.05533283 -20.140625 26.30517578 C-20.14781555 25.50172226 -20.1550061 24.69826874 -20.16241455 23.87046814 C-20.13887963 17.3659088 -19.67624699 10.42274223 -15.16357422 5.35205078 C-14.69435547 4.79775391 -14.22513672 4.24345703 -13.74169922 3.67236328 C-9.6865045 0.46633327 -5.02289328 -0.02232397 0 0 Z " fill="#292123" transform="translate(256.91357421875,47.77294921875)"/>
<path d="M0 0 C5.19713052 5.4941094 7.17795832 10.5045338 7.1875 17.9375 C7.0946875 20.4434375 7.0946875 20.4434375 7 23 C1.06 23 -4.88 23 -11 23 C-11.65104167 20.72135417 -12.30208333 18.44270833 -12.953125 16.1640625 C-13.8330401 13.9077605 -13.8330401 13.9077605 -15.765625 12.7265625 C-18.44349374 11.855787 -20.68533713 11.73453482 -23.5 11.75 C-24.90765625 11.74226563 -24.90765625 11.74226563 -26.34375 11.734375 C-29.07458344 12.00745834 -30.70602935 12.51934622 -33 14 C-34.42041821 16.84083641 -34.31452272 18.85477278 -34 22 C-31.19505946 25.52011693 -28.98906457 26.58328047 -24.60546875 27.34375 C-23.56712891 27.53839844 -22.52878906 27.73304687 -21.45898438 27.93359375 C-19.83959961 28.21396484 -19.83959961 28.21396484 -18.1875 28.5 C-1.0726568 31.49535578 -1.0726568 31.49535578 4.3125 38.625 C9.10658356 45.55975723 9.55555568 53.20349464 8.52734375 61.39453125 C7.11822256 68.35663372 4.13624342 72.45492729 -1.51171875 76.67578125 C-8.78300164 80.54542787 -15.64626952 81.52770712 -23.8125 81.4375 C-24.77937744 81.42920166 -25.74625488 81.42090332 -26.74243164 81.41235352 C-35.86881676 81.19690243 -43.96598805 80.05159373 -51.0625 73.875 C-56.47603146 67.72205936 -57 60.93184161 -57 53 C-50.73 53 -44.46 53 -38 53 C-37.01 55.97 -36.02 58.94 -35 62 C-30.32971092 64.84773724 -24.34770505 64.45455493 -19 64 C-15.67596618 63.02634007 -15.67596618 63.02634007 -13 61 C-12.72290073 59.00250681 -12.72290073 59.00250681 -12.6875 56.6875 C-12.65011719 55.90761719 -12.61273438 55.12773437 -12.57421875 54.32421875 C-13.16325614 51.10883116 -14.5183315 50.08154346 -17 48 C-19.53055626 47.1059092 -19.53055626 47.1059092 -22.32421875 46.7265625 C-23.35353516 46.5409375 -24.38285156 46.3553125 -25.44335938 46.1640625 C-27.58585465 45.80805486 -29.72907929 45.45640593 -31.87304688 45.109375 C-39.46662952 43.72958276 -46.46807818 41.52598741 -51.39916992 35.20703125 C-55.76205612 27.94619779 -56.29070352 19.04880547 -54.5390625 10.83984375 C-51.82247789 3.8246635 -47.1852366 -0.71404574 -40.5 -3.875 C-27.78629606 -9.0799392 -11.03117469 -9.1478034 0 0 Z " fill="#292123" transform="translate(514,74)"/>
<path d="M0 0 C6.6 0 13.2 0 20 0 C20 36.96 20 73.92 20 112 C13.4 112 6.8 112 0 112 C0 75.04 0 38.08 0 0 Z " fill="#292123" transform="translate(330,42)"/>
<path d="M0 0 C2.6268975 2.59506042 5.02764624 5.17308566 7.25 8.125 C8.03117187 9.14980469 8.03117187 9.14980469 8.828125 10.1953125 C10 12 10 12 10 14 C10.57363281 14.26941406 11.14726563 14.53882812 11.73828125 14.81640625 C14.05109876 16.0267408 16.06633291 17.41906892 18.1875 18.9375 C27.06062454 24.84331341 35.46348849 25.56535017 46 26 C46 25.01 46 24.02 46 23 C55.16891892 20.35810811 55.16891892 20.35810811 59 22 C60.875 24.375 60.875 24.375 62 27 C61.505 28.485 61.505 28.485 61 30 C59.34561387 30.69658363 57.67745682 31.36096883 56 32 C55.505 32.515625 55.01 33.03125 54.5 33.5625 C52.49293911 35.48593335 50.70332474 35.63468585 48 36 C48 35.34 48 34.68 48 34 C46.26363281 34.63228516 46.26363281 34.63228516 44.4921875 35.27734375 C42.95322108 35.8309963 41.41415317 36.38436683 39.875 36.9375 C38.73417969 37.35418945 38.73417969 37.35418945 37.5703125 37.77929688 C22.35628485 43.22224642 1.85654882 43.86846242 -13 37 C-13.91007812 36.59910156 -14.82015625 36.19820312 -15.7578125 35.78515625 C-23.83322798 31.81646916 -30.34090618 25.94977858 -37 20 C-33.14250848 16.66484333 -29.06678401 14.33459768 -24.51171875 12.109375 C-23.4569207 11.58515961 -23.4569207 11.58515961 -22.3808136 11.050354 C-20.15248194 9.94452879 -17.92010897 8.84715958 -15.6875 7.75 C-14.16834419 6.99795229 -12.64946097 6.24535369 -11.13085938 5.4921875 C-7.42369587 3.65507038 -3.71288656 1.82552106 0 0 Z " fill="#F8FCFC" transform="translate(111,110)"/>
<path d="M0 0 C0.34077314 3.62433988 0.6712218 7.24955391 1 10.875 C1.09539062 11.88820313 1.19078125 12.90140625 1.2890625 13.9453125 C1.86095879 20.31787113 2.12770164 26.60250235 2 33 C-7.10316595 37.71222708 -16.38639809 41.9261806 -25.77685547 46.02734375 C-27.90759312 46.95957072 -30.03411096 47.90088182 -32.16015625 48.84375 C-33.41904224 49.39635437 -34.67814422 49.94846709 -35.9375 50.5 C-37.03964844 50.9846875 -38.14179687 51.469375 -39.27734375 51.96875 C-42 53 -42 53 -45 53 C-45.84378975 50.94175571 -46.67463622 48.87820214 -47.5 46.8125 C-47.9640625 45.66394531 -48.428125 44.51539063 -48.90625 43.33203125 C-49.90805652 40.28009923 -50.23870804 38.16884928 -50 35 C-51.32 35 -52.64 35 -54 35 C-54.67667998 33.75539217 -55.34094719 32.50403104 -56 31.25 C-56.37125 30.55390625 -56.7425 29.8578125 -57.125 29.140625 C-58 27 -58 27 -58 23 C-30.77878652 10.79302939 -30.77878652 10.79302939 -19.33520508 6.17724609 C-15.1025395 4.46997953 -10.95177162 2.64973847 -6.859375 0.62890625 C-4.51884235 -0.1627445 -2.45622731 -0.04050109 0 0 Z " fill="#FAFDFD" transform="translate(101,49)"/>
<path d="M0 0 C0.70045456 1.91197039 1.384919 3.82980435 2.0625 5.75 C2.44535156 6.81734375 2.82820313 7.8846875 3.22265625 8.984375 C4.02494537 12.09677298 4.27728974 13.12706121 3 16 C0.64257812 17.56811523 0.64257812 17.56811523 -2.46875 19.05859375 C-4.16257812 19.88520508 -4.16257812 19.88520508 -5.890625 20.72851562 C-7.67726563 21.57446289 -7.67726563 21.57446289 -9.5 22.4375 C-11.8237965 23.55937731 -14.14672987 24.6830444 -16.46875 25.80859375 C-18.14517578 26.61079346 -18.14517578 26.61079346 -19.85546875 27.42919922 C-23.36531166 29.18248565 -26.70712933 31.13140997 -30.01757812 33.23461914 C-32.7084699 34.27352871 -34.29000227 33.88497103 -37 33 C-39.01953125 30.6015625 -39.01953125 30.6015625 -40.8125 27.625 C-41.41707031 26.64789063 -42.02164063 25.67078125 -42.64453125 24.6640625 C-44 22 -44 22 -44 19 C-35.71990965 14.7687899 -27.35206983 10.79787394 -18.86938477 6.99316406 C-16.90565817 6.11069069 -14.94602998 5.21949441 -12.98632812 4.328125 C-11.72940568 3.76248942 -10.47225293 3.19736525 -9.21484375 2.6328125 C-8.09198975 2.12637207 -6.96913574 1.61993164 -5.81225586 1.09814453 C-3 0 -3 0 0 0 Z " fill="#F6FBFB" transform="translate(105,89)"/>
<path d="M0 0 C-0.99 1.32 -1.98 2.64 -3 4 C-1.68 4.33 -0.36 4.66 1 5 C-5.93 8.465 -5.93 8.465 -13 12 C-13 11.01 -13 10.02 -13 9 C-14.32 8.67 -15.64 8.34 -17 8 C-17.33 8.99 -17.66 9.98 -18 11 C-19.875 11.8125 -19.875 11.8125 -22 12 C-22.99 11.34 -23.98 10.68 -25 10 C-21.40400558 8.12965549 -17.79702853 6.28157151 -14.1875 4.4375 C-12.65125977 3.63795898 -12.65125977 3.63795898 -11.08398438 2.82226562 C-10.10107422 2.32275391 -9.11816406 1.82324219 -8.10546875 1.30859375 C-7.19949951 0.84251709 -6.29353027 0.37644043 -5.36010742 -0.10375977 C-3 -1 -3 -1 0 0 Z " fill="#296E77" transform="translate(107,107)"/>
<path d="M0 0 C-0.99 1.1446875 -0.99 1.1446875 -2 2.3125 C-4.29850538 4.84277939 -4.29850538 4.84277939 -4 8 C-6.8125 8.6875 -6.8125 8.6875 -10 9 C-11.875 7.5625 -11.875 7.5625 -13 6 C-12 3 -12 3 -10.0390625 1.796875 C-9.24242187 1.45140625 -8.44578125 1.1059375 -7.625 0.75 C-6.83351563 0.39421875 -6.04203125 0.0384375 -5.2265625 -0.328125 C-3 -1 -3 -1 0 0 Z " fill="#267177" transform="translate(71,98)"/>
<path d="M0 0 C0 2.31 0 4.62 0 7 C-0.99 7.33 -1.98 7.66 -3 8 C-3 7.01 -3 6.02 -3 5 C-4.32 4.67 -5.64 4.34 -7 4 C-7.33 4.99 -7.66 5.98 -8 7 C-9.875 7.8125 -9.875 7.8125 -12 8 C-12.99 7.34 -13.98 6.68 -15 6 C-13.06629769 4.99267601 -11.12789694 3.99436712 -9.1875 3 C-8.10855469 2.443125 -7.02960938 1.88625 -5.91796875 1.3125 C-3 0 -3 0 0 0 Z " fill="#326F75" transform="translate(97,111)"/>
<path d="M0 0 C-3.77167113 3.29514279 -8.15719669 4.86332688 -12.75 6.6875 C-13.54277344 7.00783203 -14.33554688 7.32816406 -15.15234375 7.65820312 C-17.09944072 8.44407961 -19.04944049 9.2227574 -21 10 C-21.33 9.34 -21.66 8.68 -22 8 C-18.20185469 5.42706285 -14.43488326 4.05968317 -10.0859375 2.74609375 C-2.09219422 -0.11309158 -2.09219422 -0.11309158 0 0 Z " fill="#8BC7CE" transform="translate(82,55)"/>
<path d="M0 0 C3.7910119 1.44950455 7.3874638 3.15172566 11 5 C11 6.32 11 7.64 11 9 C11.66 9 12.32 9 13 9 C12.67 10.32 12.34 11.64 12 13 C11.46890625 12.39671875 10.9378125 11.7934375 10.390625 11.171875 C9.68421875 10.37265625 8.9778125 9.5734375 8.25 8.75 C7.55390625 7.96109375 6.8578125 7.1721875 6.140625 6.359375 C4.15413084 4.16988144 2.10898692 2.07098715 0 0 Z " fill="#297881" transform="translate(85,140)"/>
<path d="M0 0 C2.0625 0.75 2.0625 0.75 4 2 C4.33 2.99 4.66 3.98 5 5 C6.62652316 6.70586575 8.29006566 8.3777546 10 10 C8.68 9.67 7.36 9.34 6 9 C6 8.34 6 7.68 6 7 C5.4225 6.896875 4.845 6.79375 4.25 6.6875 C1.64338842 5.89103535 0.0264689 4.80934723 -2 3 C-2 2.34 -2 1.68 -2 1 C-1.34 0.67 -0.68 0.34 0 0 Z " fill="#4CA7B4" transform="translate(82,137)"/>
<path d="M0 0 C1.65 1.32 3.3 2.64 5 4 C4.34 4 3.68 4 3 4 C3.350625 4.763125 3.70125 5.52625 4.0625 6.3125 C5 9 5 9 4 12 C4 11.34 4 10.68 4 10 C3.34 10 2.68 10 2 10 C0.68373308 6.38026598 0 3.90432869 0 0 Z " fill="#6ABAC2" transform="translate(58,104)"/>
<path d="M0 0 C0.99 0.33 1.98 0.66 3 1 C2.34 1.66 1.68 2.32 1 3 C0.83322718 6.58343976 0.83322718 6.58343976 1 10 C-1.89932357 7.60490662 -2.50168276 5.68754757 -3 2 C-2.01 1.34 -1.02 0.68 0 0 Z " fill="#E7F8FA" transform="translate(64,106)"/>
<path d="M0 0 C1.15224028 0.92961422 2.29659176 1.8690125 3.4375 2.8125 C4.07558594 3.33457031 4.71367188 3.85664062 5.37109375 4.39453125 C7 6 7 6 8 9 C6.68 9.33 5.36 9.66 4 10 C2.26434698 6.6796203 0.81825274 3.65433265 0 0 Z " fill="#62B1BE" transform="translate(64,117)"/>
<path d="M0 0 C-2.28459758 2.28459758 -4.12537344 2.97129748 -7.125 4.125 C-8.03507812 4.47820312 -8.94515625 4.83140625 -9.8828125 5.1953125 C-10.58148438 5.46085937 -11.28015625 5.72640625 -12 6 C-12.33 5.34 -12.66 4.68 -13 4 C-4.738041 -0.59225513 -4.738041 -0.59225513 0 0 Z " fill="#84C5CC" transform="translate(59,65)"/>
<path d="M0 0 C-0.33 1.32 -0.66 2.64 -1 4 C-2.8125 4.625 -2.8125 4.625 -5 5 C-5.99 4.34 -6.98 3.68 -8 3 C-2.25 0 -2.25 0 0 0 Z " fill="#3B7682" transform="translate(90,114)"/>
<path d="M0 0 C3.4375 1.25 3.4375 1.25 7 3 C7.9375 5.1875 7.9375 5.1875 8 7 C7.01 7 6.02 7 5 7 C4.34 6.01 3.68 5.02 3 4 C2.01 3.67 1.02 3.34 0 3 C0 2.01 0 1.02 0 0 Z " fill="#389AA7" transform="translate(100,156)"/>
<path d="M0 0 C2.5 1.375 2.5 1.375 5 3 C5 3.66 5 4.32 5 5 C3.68 5.33 2.36 5.66 1 6 C-0.0625 4.125 -0.0625 4.125 -1 2 C-0.67 1.34 -0.34 0.68 0 0 Z " fill="#1F696D" transform="translate(76,121)"/>
<path d="M0 0 C-0.66 1.32 -1.32 2.64 -2 4 C-3.98 4 -5.96 4 -8 4 C-6.4425489 0.88509781 -3.40085499 0 0 0 Z " fill="#D7EBED" transform="translate(75,102)"/>
<path d="M0 0 C-0.99 1.485 -0.99 1.485 -2 3 C-4.625 3.1875 -4.625 3.1875 -7 3 C-7 2.34 -7 1.68 -7 1 C-3.375 -1.125 -3.375 -1.125 0 0 Z " fill="#31737E" transform="translate(71,98)"/>
</svg>
